<svg width="82" height="24" viewBox="0 0 82 24" fill="none" xmlns="http://www.w3.org/2000/svg">
<path fill-rule="evenodd" clip-rule="evenodd" d="M55.9832 19.4418L63.5046 12.0638C63.5046 13.2715 64.0453 17.214 63.4856 17.7788C61.5836 20.3948 58.4915 20.3894 55.9832 19.4418ZM67.4742 14.5231C67.4742 13.5679 67.5994 13.1787 67.9602 12.4377C70.4274 7.36944 77.8163 9.60469 77.8163 14.3181C77.8163 17.1185 75.8948 19.5443 72.9063 19.5443C69.8039 19.5443 67.4742 17.6584 67.4742 14.5231ZM53.5807 16.7777C53.1842 15.9674 53.2674 14.8393 53.2674 13.9084C53.2674 11.8668 54.8475 10.2779 56.6098 9.5022C57.7867 8.98438 59.8705 8.71757 61.102 9.29722L53.5807 16.7778V16.7777ZM63.5046 6.63293C59.3361 4.46939 55.3421 5.35483 52.0783 8.43835C51.0574 9.50907 49.82 11.3199 49.82 12.8837L49.7155 7.14499C49.7205 5.24267 50.1396 5.60806 46.1637 5.60806C45.5073 5.60806 45.7437 6.48849 45.7482 7.03766C45.7681 9.59076 45.8495 15.4893 45.7473 17.5985C45.613 20.3695 42.9139 20.2446 42.0404 19.0801C41.7285 18.6642 41.5675 17.972 41.5675 17.2899V5.71055H37.8068V17.6997C37.8068 18.3229 37.6287 18.814 37.314 19.1637C36.2547 20.3424 34.3902 19.9273 33.8947 18.6679C33.3752 17.3475 33.7265 9.09614 33.7324 7.0425C33.7382 5.28183 34.2148 5.60789 30.285 5.60789C30.0445 5.60789 29.9717 5.67915 29.9717 5.91536V18.3144C29.9717 19.864 30.715 20.9605 31.7046 21.943C32.4954 22.7278 34.0651 23.5405 35.195 23.5405C37.2955 23.5405 38.0899 23.3649 39.6867 22.0034L41.1823 22.9957C43.6599 24.2029 46.699 23.4298 48.3447 21.2737C48.7204 20.7819 49.2218 19.8118 49.4171 19.149C49.7246 18.1077 49.7151 17.5216 49.7151 16.1624H49.82C49.82 16.8916 50.3078 18.0678 50.6098 18.5643C51.8346 20.5795 53.5526 22.3964 55.9592 23.0513C58.6778 23.791 61.461 23.6439 63.8821 22.0665C64.6132 21.5903 65.432 20.7436 65.6982 20.5687C66.3692 21.0095 66.6246 21.6939 68.3788 22.5503C71.8705 24.2549 75.685 23.7976 78.683 21.3168C87.0164 14.421 78.3009 1.42262 67.4742 7.0425V0.48427L63.609 0.279297C63.3174 1.5071 63.5046 5.04997 63.5046 6.63258V6.63293Z" fill="#202B8F"/>
<path fill-rule="evenodd" clip-rule="evenodd" d="M0.82855 15.3426C0.82855 18.4674 3.39986 21.4315 6.04989 22.7224C8.33781 23.8372 11.6702 23.7883 13.9237 22.6545C16.8951 21.1593 19.1098 18.3311 19.1098 14.9327V5.91513C19.1098 5.67897 19.0371 5.60766 18.7964 5.60766C14.8059 5.60766 15.1165 5.33584 15.1339 6.42142C15.1602 8.04248 15.2153 14.0467 15.1138 14.8046C14.7483 17.5416 13.0224 19.4356 10.2667 19.5689C9.11572 19.6246 7.43386 19.1716 6.70134 18.4965C4.23266 16.2206 4.90251 14.7323 4.90251 10.7312C4.90251 9.1258 4.90251 7.52035 4.90251 5.91491C4.67614 5.76621 4.55479 5.60748 4.17131 5.60748H0.828369V15.3424L0.82855 15.3426Z" fill="#202B8F"/>
<path fill-rule="evenodd" clip-rule="evenodd" d="M19.8396 3.55886V23.2334C19.8396 23.5191 20.2388 23.4384 20.6751 23.4384H23.9131V0.484619L19.8391 3.55867L19.8396 3.55886Z" fill="#202B8F"/>
<path fill-rule="evenodd" clip-rule="evenodd" d="M25.2724 3.76372V23.131C25.2372 23.7908 27.3318 23.4086 28.4119 23.4362C29.563 23.4657 29.3288 23.8346 29.346 21.0816V0.382202L25.272 3.76372H25.2724Z" fill="#202B8F"/>
</svg>
