<svg width="178" height="66" viewBox="0 0 178 66" fill="none" xmlns="http://www.w3.org/2000/svg">
<g id="Outline ABA+ 1" clip-path="url(#clip0_2190_2937)">
<path id="Vector" d="M17.7957 39.645C19.3724 47.4163 35.5909 52.8225 40.8844 39.3071C37.7308 43.587 27.9322 50.0068 17.7957 39.645Z" fill="white"/>
<path id="Vector_2" d="M73.5705 29.5084L72.7039 27.4118H68.1607L67.2942 29.5084H64.9736L69.335 19.7234H71.5716L75.9469 29.5084H73.5705ZM68.8876 25.6924H71.991L70.4394 21.946L68.8876 25.6924ZM81.5085 29.6763C78.475 29.6763 76.2105 27.5654 76.2105 24.6159C76.2105 21.6664 78.475 19.5557 81.5225 19.5557C83.2139 19.5557 84.6256 20.1707 85.5483 21.289L84.0945 22.6309C83.4376 21.8761 82.6127 21.4847 81.6342 21.4847C79.8031 21.4847 78.5031 22.7708 78.5031 24.6159C78.5031 26.4612 79.8031 27.7472 81.6342 27.7472C82.6127 27.7472 83.4376 27.3557 84.0945 26.5869L85.5483 27.9289C84.6256 29.0611 83.2139 29.6763 81.5085 29.6763ZM91.5556 29.6763C88.5223 29.6763 86.2576 27.5654 86.2576 24.6159C86.2576 21.6664 88.5223 19.5557 91.5696 19.5557C93.261 19.5557 94.6729 20.1707 95.5953 21.289L94.1415 22.6309C93.4847 21.8761 92.6598 21.4847 91.6813 21.4847C89.8502 21.4847 88.5502 22.7708 88.5502 24.6159C88.5502 26.4612 89.8502 27.7472 91.6813 27.7472C92.6598 27.7472 93.4847 27.3557 94.1415 26.5869L95.5953 27.9289C94.6729 29.0611 93.261 29.6763 91.5556 29.6763ZM105.791 29.5084H103.359L101.472 26.7826H101.36H99.3891V29.5084H97.1246V19.7234H101.36C103.974 19.7234 105.61 21.0793 105.61 23.274C105.61 24.7418 104.869 25.8181 103.597 26.3632L105.791 29.5084ZM103.317 23.274C103.317 22.1976 102.618 21.5686 101.234 21.5686H99.3891V24.9794H101.234C102.618 24.9794 103.317 24.3363 103.317 23.274ZM109.654 27.6913H114.98V29.5084H107.404V19.7234H114.799V21.5406H109.654V23.6653H114.197V25.4266H109.654V27.6913ZM116.782 29.5084V19.7234H121.227C124.428 19.7234 126.623 21.6525 126.623 24.6159C126.623 27.5794 124.428 29.5084 121.227 29.5084H116.782ZM119.047 27.6492H121.116C123.059 27.6492 124.331 26.4891 124.331 24.6159C124.331 22.7429 123.059 21.5826 121.116 21.5826H119.047V27.6492ZM128.331 29.5084V19.7234H130.595V29.5084H128.331ZM134.944 29.5084V21.5686H131.813V19.7234H140.34V21.5686H137.209V29.5084H134.944ZM143.809 27.6913H149.135V29.5084H141.559V19.7234H148.953V21.5406H143.809V23.6653H148.352V25.4266H143.809V27.6913ZM150.937 29.5084V19.7234H155.382C158.583 19.7234 160.778 21.6525 160.778 24.6159C160.778 27.5794 158.583 29.5084 155.382 29.5084H150.937ZM153.201 27.6492H155.27C157.213 27.6492 158.485 26.4891 158.485 24.6159C158.485 22.7429 157.213 21.5826 155.27 21.5826H153.201V27.6492ZM73.4448 41.5396C74.535 41.8892 75.234 42.7278 75.234 43.9579C75.234 45.6494 73.8922 46.6279 71.32 46.6279H66.2598V36.8428H71.0404C73.4867 36.8428 74.7448 37.8634 74.7448 39.387C74.7448 40.3656 74.2415 41.1204 73.4448 41.5396ZM70.7609 38.5482H68.5103V40.8548H70.7609C71.8651 40.8548 72.4663 40.4633 72.4663 39.6945C72.4663 38.9257 71.8651 38.5482 70.7609 38.5482ZM71.1524 44.9225C72.3264 44.9225 72.9555 44.5591 72.9555 43.7203C72.9555 42.8956 72.3264 42.5041 71.1524 42.5041H68.5103V44.9225H71.1524ZM81.2959 46.7957C78.5142 46.7957 76.8646 45.202 76.8646 42.3226V36.8428H79.1291V42.2386C79.1291 44.0978 79.9398 44.8666 81.3098 44.8666C82.6936 44.8666 83.4905 44.0978 83.4905 42.2386V36.8428H85.7271V42.3226C85.7271 45.202 84.0776 46.7957 81.2959 46.7957ZM91.1799 46.7957C89.6283 46.7957 88.0628 46.3344 87.196 45.6634L87.9648 43.9579C88.7895 44.5591 90.0196 44.9783 91.1938 44.9783C92.5359 44.9783 93.081 44.5312 93.081 43.93C93.081 42.0989 87.3917 43.357 87.3917 39.7224C87.3917 38.0589 88.7336 36.6752 91.5153 36.6752C92.7454 36.6752 94.0037 36.9687 94.9121 37.5417L94.2132 39.2611C93.3047 38.7439 92.3681 38.4923 91.5013 38.4923C90.1595 38.4923 89.6423 38.9956 89.6423 39.6107C89.6423 41.4139 95.3316 40.1698 95.3316 43.7622C95.3316 45.3978 93.9755 46.7957 91.1799 46.7957ZM96.8789 46.6279V36.8428H99.1436V46.6279H96.8789ZM108.203 36.8428H110.44V46.6279H108.581L103.702 40.687V46.6279H101.466V36.8428H103.339L108.203 42.7837V36.8428ZM115.006 44.8108H120.331V46.6279H112.755V36.8428H120.15V38.6601H115.006V40.7848H119.549V42.546H115.006V44.8108ZM125.348 46.7957C123.797 46.7957 122.231 46.3344 121.364 45.6634L122.133 43.9579C122.958 44.5591 124.188 44.9783 125.362 44.9783C126.704 44.9783 127.249 44.5312 127.249 43.93C127.249 42.0989 121.56 43.357 121.56 39.7224C121.56 38.0589 122.902 36.6752 125.684 36.6752C126.914 36.6752 128.172 36.9687 129.081 37.5417L128.382 39.2611C127.473 38.7439 126.537 38.4923 125.67 38.4923C124.328 38.4923 123.811 38.9956 123.811 39.6107C123.811 41.4139 129.5 40.1698 129.5 43.7622C129.5 45.3978 128.144 46.7957 125.348 46.7957ZM134.263 46.7957C132.711 46.7957 131.145 46.3344 130.278 45.6634L131.047 43.9579C131.872 44.5591 133.102 44.9783 134.277 44.9783C135.618 44.9783 136.164 44.5312 136.164 43.93C136.164 42.0989 130.474 43.357 130.474 39.7224C130.474 38.0589 131.816 36.6752 134.598 36.6752C135.828 36.6752 137.086 36.9687 137.995 37.5417L137.296 39.2611C136.387 38.7439 135.451 38.4923 134.584 38.4923C133.242 38.4923 132.725 38.9956 132.725 39.6107C132.725 41.4139 138.414 40.1698 138.414 43.7622C138.414 45.3978 137.058 46.7957 134.263 46.7957ZM151.231 46.6279L150.364 44.5312H145.821L144.955 46.6279H142.634L146.996 36.8428H149.232L153.608 46.6279H151.231ZM146.548 42.8118H149.652L148.1 39.0654L146.548 42.8118ZM160.655 40.8827V42.5882H158.223V44.9644H156.42V42.5882H154.002V40.8827H156.42V38.5063H158.223V40.8827H160.655Z" fill="white"/>
<path id="Vector_3" d="M172.321 0.562988H4.95609C2.53018 0.562988 0.563599 2.52957 0.563599 4.95548V61.0442C0.563599 63.4701 2.53018 65.4367 4.95609 65.4367H172.321C174.747 65.4367 176.714 63.4701 176.714 61.0442V4.95548C176.714 2.52957 174.747 0.562988 172.321 0.562988Z" stroke="white" stroke-width="1.12628"/>
<path id="Vector_4" fill-rule="evenodd" clip-rule="evenodd" d="M29.3964 42.1231C35.6788 42.1231 40.7718 36.8284 40.7718 30.2971C40.7718 23.7658 35.6788 18.4712 29.3964 18.4712C23.114 18.4712 18.0209 23.7658 18.0209 30.2971C18.0209 36.8284 23.114 42.1231 29.3964 42.1231ZM32.6479 41.2941C35.0564 40.5593 35.5098 35.0498 33.6607 28.9877C31.8118 22.9259 28.3604 18.6073 25.9517 19.342C23.5433 20.0766 23.0899 25.5864 24.939 31.6482C26.7881 37.7101 30.2395 42.0287 32.6479 41.2941Z" fill="white"/>
<path id="Vector_5" d="M55.7513 64.8737V0" stroke="white" stroke-width="1.12628"/>
</g>
<defs>
<clipPath id="clip0_2190_2937">
<rect width="177.276" height="66" fill="white"/>
</clipPath>
</defs>
</svg>
